<svg width="160" height="60" viewBox="0 0 160 60" fill="none" xmlns="http://www.w3.org/2000/svg">
<path fill-rule="evenodd" clip-rule="evenodd" d="M41.5853 2.36844L41.4742 2.32303C32.8221 16.7001 36.9046 21.7343 37.6193 23.5503C38.3437 25.3912 41.5917 29.8719 42.5081 31.1983C43.0654 32.0004 43.5171 32.8381 43.9903 33.6889C46.8869 38.8841 41.1789 43.7009 37.2528 46.1612C31.8336 49.5555 25.0066 51.7564 18.5396 51.2408C17.9747 51.1965 17.4131 51.1262 16.8547 51.0267C15.3261 50.7533 13.7597 49.9901 12.8984 48.6486C12.1093 47.4174 12.0112 45.8445 12.2968 44.41C12.9264 41.246 15.1913 38.7046 17.302 36.2702C19.7728 33.4208 22.1606 30.474 24.0493 27.2073C25.9391 23.9405 27.3221 20.3268 27.6477 16.5661C28.0487 22.4045 25.5445 28.0591 22.4754 33.037C20.5307 36.1924 18.3175 39.2343 17.0573 42.7216C16.7178 43.662 16.4396 44.7538 16.7156 45.7461C17.0024 46.7785 17.9251 47.3676 18.8662 47.7643C23.8898 49.882 29.9439 48.2378 34.4176 45.5462C36.3688 44.3722 38.8568 42.6697 39.5899 40.392C40.1472 38.6581 39.6945 36.7837 39.0854 35.1266C38.0839 32.4068 36.4076 30.0146 35.0967 27.4473C34.2257 25.7404 33.5056 23.9308 33.2954 22.0121C33.2609 21.704 33.2426 21.3948 33.2447 21.0846C33.2922 13.2053 39.661 4.50554 41.388 2.28952L41.4171 2.30033L41.2813 2.2452C37.7778 0.799928 33.9422 0 29.918 0C13.3943 0 0 13.4312 0 30.0005C0 46.5688 13.3943 60 29.918 60C46.4396 60 59.8349 46.5688 59.8349 30.0005C59.8349 17.5833 52.3115 6.93019 41.5853 2.36844Z" fill="#E42722"/>
<path fill-rule="evenodd" clip-rule="evenodd" d="M72.4317 45.6925L71.3667 48.3906C71.2438 48.7128 71.0982 49.1884 71.0982 49.1884H71.0821C71.0821 49.1884 70.929 48.7128 70.8072 48.3906L69.741 45.6925H68.6835L68.2383 51.1504H69.2279L69.4575 48.0988C69.4801 47.7366 69.4651 47.2459 69.4651 47.2459H69.4801C69.4801 47.2459 69.6494 47.7842 69.7798 48.0988L70.653 50.2121H71.5197L72.4016 48.0988C72.532 47.7842 72.6926 47.2513 72.6926 47.2513H72.7077C72.7077 47.2513 72.6926 47.7366 72.7153 48.0988L72.9459 51.1504H73.9269L73.4893 45.6925H72.4317Z" fill="#020203"/>
<path fill-rule="evenodd" clip-rule="evenodd" d="M76.1274 48.8278H77.96V47.9738H76.1274V46.5458H78.3966V45.6929H75.1388V51.1497H78.5195V50.2968H76.1274V48.8278Z" fill="#020203"/>
<path fill-rule="evenodd" clip-rule="evenodd" d="M81.3485 50.2973H80.5357V46.5441H81.3485C82.4373 46.5441 83.1574 47.1992 83.1574 48.4142C83.1574 49.6444 82.4524 50.2973 81.3485 50.2973ZM81.4013 45.6912H79.5471V51.1502H81.4013C83.0808 51.1502 84.1772 50.1362 84.1772 48.4142C84.1772 46.6911 83.0808 45.6912 81.4013 45.6912Z" fill="#020203"/>
<path fill-rule="evenodd" clip-rule="evenodd" d="M90.0584 50.3353C88.9232 50.3353 88.2257 49.4208 88.2257 48.382C88.2257 47.368 88.9006 46.5065 90.0497 46.5065C90.9175 46.5065 91.5374 47.0837 91.5374 47.0837L92.0117 46.3443C92.0117 46.3443 91.3304 45.5995 90.0045 45.5995C88.4025 45.5995 87.206 46.8146 87.206 48.3982C87.206 50.0035 88.3562 51.2423 90.0196 51.2423C91.408 51.2423 92.1583 50.358 92.1583 50.358L91.6376 49.6424C91.6376 49.6424 91.0005 50.3353 90.0584 50.3353Z" fill="#020203"/>
<path fill-rule="evenodd" clip-rule="evenodd" d="M85.2128 51.1497H86.2014V45.6918H85.2128V51.1497Z" fill="#020203"/>
<path fill-rule="evenodd" clip-rule="evenodd" d="M93.0704 51.1497H94.059V45.6918H93.0704V51.1497Z" fill="#020203"/>
<path fill-rule="evenodd" clip-rule="evenodd" d="M98.905 48.8447C98.905 49.1669 98.9589 49.6879 98.9589 49.6879H98.9428C98.9428 49.6879 98.6981 49.1593 98.4911 48.8447L96.4289 45.6926H95.4392V51.1505H96.4289V48.007C96.4289 47.6838 96.375 47.1595 96.375 47.1595H96.3901C96.3901 47.1595 96.6358 47.6913 96.8428 48.007L98.905 51.1505H99.886V45.6926H98.905V48.8447Z" fill="#020203"/>
<path fill-rule="evenodd" clip-rule="evenodd" d="M102.301 48.9429L102.785 47.4814C102.891 47.1755 103.014 46.6372 103.014 46.6372H103.029C103.029 46.6372 103.145 47.1755 103.244 47.4814L103.727 48.9429H102.301ZM102.5 45.6924L100.584 51.1503H101.603L102.063 49.7515H103.973L104.432 51.1503H105.453L103.535 45.6924H102.5Z" fill="#020203"/>
<path fill-rule="evenodd" clip-rule="evenodd" d="M109.815 50.2973H109.003V46.5441H109.815C110.903 46.5441 111.624 47.1992 111.624 48.4142C111.624 49.6443 110.918 50.2973 109.815 50.2973ZM109.869 45.6912H108.013V51.1502H109.869C111.547 51.1502 112.643 50.1362 112.643 48.4142C112.643 46.6911 111.547 45.6912 109.869 45.6912Z" fill="#020203"/>
<path fill-rule="evenodd" clip-rule="evenodd" d="M117.082 48.9429L117.565 47.4814C117.673 47.1755 117.796 46.6372 117.796 46.6372H117.811C117.811 46.6372 117.925 47.1755 118.025 47.4814L118.508 48.9429H117.082ZM117.282 45.6924L115.366 51.1503H116.385L116.845 49.7515H118.753L119.213 51.1503H120.233L118.317 45.6924H117.282Z" fill="#020203"/>
<path fill-rule="evenodd" clip-rule="evenodd" d="M123.906 49.1287H124.741V49.7654C124.741 49.7654 124.197 50.3351 123.377 50.3351C122.356 50.3351 121.552 49.5665 121.552 48.3828C121.552 47.3527 122.203 46.5063 123.423 46.5063C124.289 46.5063 124.87 47.0284 124.87 47.0284L125.362 46.2911C125.362 46.2911 124.672 45.5993 123.339 45.5993C121.722 45.5993 120.532 46.8295 120.532 48.4142C120.532 50.1265 121.767 51.242 123.201 51.242C124.213 51.242 124.78 50.6583 124.78 50.6583H124.795C124.795 50.6583 124.787 50.7729 124.787 50.8886V51.1502H125.63V48.2747H123.906V49.1287Z" fill="#020203"/>
<path fill-rule="evenodd" clip-rule="evenodd" d="M130.192 48.8447C130.192 49.1669 130.246 49.6879 130.246 49.6879H130.231C130.231 49.6879 129.985 49.1593 129.779 48.8447L127.716 45.6926H126.727V51.1505H127.716V48.007C127.716 47.6838 127.663 47.1595 127.663 47.1595H127.677C127.677 47.1595 127.923 47.6913 128.13 48.007L130.192 51.1505H131.174V45.6926H130.192V48.8447Z" fill="#020203"/>
<path fill-rule="evenodd" clip-rule="evenodd" d="M135.352 45.3305L136.157 44.2852H135.153L134.571 45.3305H135.352Z" fill="#020203"/>
<path fill-rule="evenodd" clip-rule="evenodd" d="M134.993 50.3353C133.996 50.3353 133.198 49.5051 133.198 48.382C133.198 47.3064 133.996 46.5075 134.993 46.5075C135.988 46.5075 136.787 47.3064 136.787 48.382C136.787 49.5051 135.988 50.3353 134.993 50.3353ZM134.993 45.5995C133.39 45.5995 132.18 46.8221 132.18 48.382C132.18 49.9894 133.39 51.2433 134.993 51.2433C136.594 51.2433 137.806 49.9894 137.806 48.382C137.806 46.8221 136.594 45.5995 134.993 45.5995Z" fill="#020203"/>
<path fill-rule="evenodd" clip-rule="evenodd" d="M142.398 46.5455H144.184V51.1505H145.173V46.5455H146.959V45.6915H142.398V46.5455Z" fill="#020203"/>
<path fill-rule="evenodd" clip-rule="evenodd" d="M147.68 51.1497H148.669V45.6918H147.68V51.1497Z" fill="#020203"/>
<path fill-rule="evenodd" clip-rule="evenodd" d="M152.525 50.3353C151.391 50.3353 150.693 49.4208 150.693 48.382C150.693 47.368 151.368 46.5065 152.517 46.5065C153.384 46.5065 154.005 47.0837 154.005 47.0837L154.481 46.3443C154.481 46.3443 153.798 45.5995 152.472 45.5995C150.87 45.5995 149.674 46.8145 149.674 48.3982C149.674 50.0035 150.824 51.2423 152.487 51.2423C153.875 51.2423 154.626 50.358 154.626 50.358L154.105 49.6424C154.105 49.6424 153.468 50.3353 152.525 50.3353Z" fill="#020203"/>
<path fill-rule="evenodd" clip-rule="evenodd" d="M156.574 48.9429L157.057 47.4814C157.165 47.1755 157.286 46.6372 157.286 46.6372H157.301C157.301 46.6372 157.417 47.1755 157.516 47.4814L157.999 48.9429H156.574ZM156.772 45.6924L154.857 51.1503H155.876L156.336 49.7515H158.245L158.704 51.1503H159.725L157.808 45.6924H156.772Z" fill="#020203"/>
<path fill-rule="evenodd" clip-rule="evenodd" d="M113.591 51.1497H114.587V45.6918H113.591V51.1497Z" fill="#020203"/>
<path fill-rule="evenodd" clip-rule="evenodd" d="M139.508 47.1673C139.508 46.7846 139.869 46.5144 140.328 46.5144C141.011 46.5144 141.532 46.9911 141.532 46.9911L141.961 46.1847C141.961 46.1847 141.409 45.6009 140.336 45.6009C139.293 45.6009 138.512 46.2765 138.512 47.1846C138.512 48.859 141.08 48.6904 141.08 49.6665C141.08 50.113 140.704 50.3281 140.29 50.3281C139.523 50.3281 138.933 49.7508 138.933 49.7508L138.396 50.4956C138.396 50.4956 139.064 51.2426 140.275 51.2426C141.409 51.2426 142.069 50.5118 142.069 49.6427C142.069 47.898 139.508 48.1358 139.508 47.1673Z" fill="#020203"/>
<path fill-rule="evenodd" clip-rule="evenodd" d="M82.5124 30.2552C81.3449 29.3763 79.9801 28.8391 78.6628 28.3018C77.3465 27.8122 75.9343 27.276 74.8617 26.7874C73.8883 26.2966 73.401 25.7604 73.401 24.8816C73.401 23.0731 75.1549 22.0948 77.0555 22.0948C78.5173 22.0948 79.9316 22.5348 81.9302 23.659L83.6356 20.6787C81.2468 19.3091 79.15 18.5287 76.9089 18.5287C73.0582 18.5287 69.1116 20.8744 69.1116 25.3194C69.1116 29.2769 72.1322 30.4519 75.1549 31.5761C75.7867 31.8702 76.4701 32.162 77.1051 32.4085C78.4677 32.896 80.2227 33.4322 80.2712 35.1909C80.3208 37.341 78.1281 38.369 75.8858 38.369C74.0823 38.369 72.0837 37.6848 70.2802 36.2665L68.5273 39.1517C70.816 40.9104 73.3525 41.9352 75.9343 41.9352C79.9801 41.9352 84.608 39.7851 84.7061 34.8504C84.7546 32.6496 83.7822 31.2335 82.5124 30.2552Z" fill="#E42722"/>
<path fill-rule="evenodd" clip-rule="evenodd" d="M99.9115 36.9522C99.2766 37.537 97.6693 38.4191 95.9639 38.4191C93.479 38.3694 91.723 36.3144 91.723 34.1643C91.723 31.8694 93.4295 30.4522 95.8658 30.4522L99.9115 30.5009V36.9522ZM104.345 25.4159C104.345 21.1179 100.594 18.6749 96.9384 18.6749C93.9652 18.7246 91.9677 19.2111 88.9956 20.825L90.2612 23.7566C92.6026 22.5838 94.0622 22.0941 96.0609 22.0941C98.108 22.0941 100.01 23.562 100.01 25.6116V27.1282H94.8427C90.6029 27.1282 87.1436 29.8166 87.0444 34.2638C87.0444 38.3694 90.4067 41.6426 94.404 41.7399V41.6923C98.7408 41.7907 102.153 40.0784 104.394 37.83L104.345 25.4159Z" fill="#E42722"/>
<path fill-rule="evenodd" clip-rule="evenodd" d="M113.41 23.5134C114.581 22.8767 116.579 21.9979 118.431 22.1438H118.479C122.524 22.3892 123.255 26.298 123.255 29.9626C123.255 33.5795 122.231 38.2721 118.723 38.418C116.092 38.565 113.995 37.4894 113.41 36.9998V23.5134ZM119.21 41.7907V41.7399C125.058 41.9355 128.081 35.9242 128.128 29.7182C128.128 24.2452 125.398 18.7722 119.21 18.5765C117.066 18.5279 115.165 19.1127 113.41 20.091V6.36035L108.975 7.87373V37.684C109.122 37.9305 111.949 41.5442 119.21 41.7907Z" fill="#E42722"/>
<path fill-rule="evenodd" clip-rule="evenodd" d="M135.049 9.33976C133.392 9.33976 132.076 10.6596 132.076 12.3222H132.026C132.026 13.9837 133.342 15.3025 134.997 15.3025C136.655 15.3025 137.971 13.9837 137.971 12.3222C138.021 10.6596 136.704 9.33976 135.049 9.33976Z" fill="#E42722"/>
<path fill-rule="evenodd" clip-rule="evenodd" d="M137.338 18.3823L132.757 19.8968L132.807 41.3489H137.338V18.3823Z" fill="#E42722"/>
<path fill-rule="evenodd" clip-rule="evenodd" d="M154.833 18.9202C152.201 18.3332 149.764 18.8218 148.01 19.3083C145.768 19.946 144.112 21.0195 142.115 22.4864V41.3495H146.647V23.4636C147.671 22.7804 149.23 22.0961 150.837 22.0464C153.665 21.9999 155.467 23.5619 155.467 26.4449V41.3495H160V24.7348C160 21.5102 157.514 19.5039 154.833 18.9202Z" fill="#E42722"/>
</svg>
